<svg id="Layer_1" xmlns="http://www.w3.org/2000/svg" viewBox="0 0 108.2 86.3"><style>.st0{opacity:.3;fill:#fdfeff}.st1{fill:#fff}.st2{fill:#fdfeff}</style><path class="st0" d="M.3 0h108.2v86.3H.3z"/><title>fountainSquare_logo</title><path class="st1" d="M18.2 19.8h-3.8v4.9H17v2.8h-2.6v8.2h-2.8V17h6.6v2.8zm11.2 12.1c0 .7-.2 1.4-.5 2-.2.5-.6 1-1.1 1.4-.6.5-1.4.7-2.1.6-.8 0-1.5-.2-2.1-.6-.5-.4-.8-.8-1.1-1.4-.3-.6-.4-1.3-.5-2v-11c0-.7.2-1.4.5-2 .5-1.3 1.8-2.1 3.2-2 .8 0 1.5.2 2.1.6.5.4.9.8 1.1 1.4.3.6.4 1.3.5 2v11zm-2.8-11c0-.4-.1-.8-.4-1.2-.2-.1-.4-.2-.6-.2-.4 0-.7.3-.8.7-.1.2-.1.5-.1.7v11c0 .4.1.8.4 1.2.1.1.3.2.5.2.4 0 .8-.3.8-.7.1-.2.1-.5.1-.7.1 0 .1-11 .1-11zM41.5 17v14.9c0 .7-.2 1.4-.5 2-.2.5-.6 1-1.1 1.4-.6.5-1.4.7-2.1.6-.8 0-1.5-.2-2.1-.6-.5-.4-.8-.8-1.1-1.4-.3-.6-.4-1.3-.5-2V17h2.8v14.9c0 .4.1.8.4 1.2.1.1.3.2.5.2.4 0 .8-.3.8-.7.1-.2.1-.5.1-.7V17h2.8zm7.8 9l-.2-.9h-.2v10.6h-2.5V17h2.5l2.7 9.8.2.9h.2V17h2.5v18.7H52L49.3 26zm9.1-6.2V17h8v2.8h-2.6v15.9H61V19.8h-2.6zM69 35.7L71.8 17h3.4L78 35.7h-2.7l-.5-3.8h-2.7l-.5 3.8H69zm4.7-12.6l-.1-.5h-.2l-.1.5-.7 5.9h1.9l-.8-5.9zm8.5-6.1H85v18.7h-2.8V17zm10.6 9l-.2-.9h-.1v10.6H90V17h2.4l2.7 9.8.2.9h.2V17H98v18.7h-2.5L92.8 26zM18 46.2c0-1-.1-2.1-.3-3.1-.1-.8-.7-1.3-1.5-1.4-1.2 0-1.6 1.3-1.6 3.1.1 1.2.5 2.4 1.1 3.4.7 1.2 1.6 2.4 2.5 3.7 1.1 1.5 2 3.1 2.9 4.8.8 1.5 1.3 3.2 1.4 4.9.1 1.9-.3 3.8-1.3 5.4-1.1 1.6-3.1 2.5-5.1 2.4-2.9 0-4.6-1.1-5.5-2.8-.9-2-1.3-4.1-1.1-6.3l4.5-.4c-.1 1.2.1 2.4.4 3.6.3 1 .8 1.7 1.8 1.7 1.4 0 1.9-1.5 1.9-3.4-.1-1.2-.5-2.4-1.2-3.4-.4-.6-.8-1.2-1.2-1.9-.9-1.3-1.9-2.7-2.9-4.3-1-1.5-1.7-3.1-2.2-4.8-.3-.8-.4-1.7-.4-2.5 0-1.7.4-3.5 1.4-4.9 1.1-1.5 2.8-2.4 4.6-2.4 2.8 0 4.4 1.1 5.3 2.8.8 1.7 1.2 3.6 1.1 5.5l-4.6.3zm19.2 16.5c0 .8-.1 1.6-.4 2.4-.1.5-.3.9-.5 1.4.4.6 1.1 1 1.8 1.1v3.9c-1.9.2-3.7-.8-4.7-2.5-.7.3-1.5.4-2.3.4-1.3.1-2.5-.3-3.6-1.1-.8-.6-1.4-1.4-1.8-2.3-.5-1.1-.7-2.2-.8-3.4V44.2c0-1.2.3-2.3.8-3.4.9-2.2 3-3.6 5.4-3.4 1.3 0 2.5.3 3.5 1.1.8.6 1.4 1.4 1.8 2.3.5 1.1.7 2.2.8 3.4v18.5zm-4.6-18.5c.1-.7-.1-1.4-.6-2-.3-.2-.6-.3-.9-.2-.7 0-1.2.5-1.4 1.2-.1.4-.2.8-.2 1.2v18.4c-.1.7.2 1.4.6 2 .2.2.6.4.9.3.7 0 1.3-.5 1.4-1.2.1-.4.2-.8.2-1.2V44.2zm20.2-6.4v24.8c0 1.2-.3 2.3-.8 3.4-.4.9-1 1.7-1.8 2.3-1 .8-2.3 1.1-3.5 1.1-1.3.1-2.5-.3-3.6-1.1-.8-.6-1.4-1.4-1.8-2.4-.5-1.1-.7-2.2-.8-3.4V37.8h4.6v24.8c-.1.7.2 1.4.6 2 .2.2.6.4.9.3.7 0 1.3-.5 1.4-1.2.1-.4.2-.8.2-1.2V37.8h4.6zm2.4 31.3l4.7-31.2h5.6l4.7 31.2h-4.5l-.8-6.4h-4.4l-.8 6.4h-4.5zM63 48l-.1-.8h-.3l-.1.8-1.3 9.9h3.2L63 48zm17.8 21.1l-2.4-13.2h-1.2v13.2h-4.6V37.8h4.6c5.5 0 7.8 3.1 7.8 9 0 3.1-.8 5.9-2.6 7.1L85.3 69l-4.5.1zm-3.6-17.5c.8.1 1.5-.2 2.2-.6.7-.6 1.2-1.7 1.2-4s-.6-3.4-1.2-4c-.6-.5-1.4-.7-2.2-.6v9.2zm11-13.8h10.5v4.7h-5.9v8.2H97v5h-4.2v8.6h5.9V69H88.2V37.8z"/><path class="st2" d="M108.2 86.3H0V0h108.2v86.3zM3 83.4h102.3V3H3v80.4z"/></svg>