<svg id="Layer_1" data-name="Layer 1" xmlns="http://www.w3.org/2000/svg" viewBox="0 0 108.21 86.33"><defs><style>.cls-1{fill:#fff}.cls-2{fill:#fdfeff}</style></defs><title>fountainSquare_logo</title><path class="cls-1" d="M18.2 19.83h-3.8v4.92H17v2.83h-2.6v8.16h-2.75V17h6.55v2.83zm11.2 12.06a5.11 5.11 0 0 1-.46 2 3.51 3.51 0 0 1-1.1 1.38 3.27 3.27 0 0 1-2.12.64 3.35 3.35 0 0 1-2.14-.64 3.44 3.44 0 0 1-1.07-1.38 5.11 5.11 0 0 1-.46-2v-11a5.08 5.08 0 0 1 .46-2 3.23 3.23 0 0 1 3.21-2 3.43 3.43 0 0 1 2.12.64 3.58 3.58 0 0 1 1.1 1.4 5.08 5.08 0 0 1 .46 2v11zm-2.75-11a1.7 1.7 0 0 0-.36-1.17.79.79 0 0 0-.56-.2.85.85 0 0 0-.82.69 2 2 0 0 0-.1.69v11a1.62 1.62 0 0 0 .38 1.17.73.73 0 0 0 .54.2.81.81 0 0 0 .82-.69 1.78 1.78 0 0 0 .1-.69v-11zM41.48 17v14.89a5.11 5.11 0 0 1-.46 2 3.51 3.51 0 0 1-1.1 1.38 3.27 3.27 0 0 1-2.12.64 3.35 3.35 0 0 1-2.14-.64 3.44 3.44 0 0 1-1.07-1.38 5.11 5.11 0 0 1-.46-2V17h2.75v14.89a1.62 1.62 0 0 0 .38 1.17.73.73 0 0 0 .54.2.81.81 0 0 0 .82-.69 1.78 1.78 0 0 0 .1-.69V17h2.75zm7.83 9l-.23-.87h-.15v10.61H46.4V17h2.45l2.68 9.77.23.87h.15V17h2.52v18.74H52zm9.11-6.17V17h8v2.83h-2.6v15.91H61V19.83h-2.6zM69 35.74L71.85 17h3.37l2.83 18.74h-2.68l-.51-3.83h-2.65l-.51 3.83H69zm4.69-12.64l-.08-.48h-.15l-.08.48-.79 5.9h1.89zm8.54-6.1H85v18.74h-2.77V17zm10.61 9l-.23-.87h-.15v10.61h-2.52V17h2.45l2.68 9.77.23.87h.15V17H98v18.74h-2.48zM18 46.2a10.25 10.25 0 0 0-.34-3.06 1.74 1.74 0 0 0-1.49-1.44c-1.19 0-1.57 1.27-1.57 3.1a7 7 0 0 0 1.15 3.36c.68 1.19 1.57 2.42 2.47 3.74a48 48 0 0 1 2.93 4.76 10.71 10.71 0 0 1 1.36 4.89A9.82 9.82 0 0 1 21.23 67a5.63 5.63 0 0 1-5.06 2.38c-2.93 0-4.59-1.11-5.53-2.8a13.33 13.33 0 0 1-1.14-6.27l4.5-.42a11.79 11.79 0 0 0 .38 3.61c.3 1 .81 1.7 1.79 1.7 1.36 0 1.87-1.45 1.87-3.44a7.77 7.77 0 0 0-1.19-3.44c-.38-.59-.76-1.23-1.19-1.87-.89-1.28-1.87-2.72-2.89-4.29a17.82 17.82 0 0 1-2.25-4.85 8.34 8.34 0 0 1-.38-2.51 8.73 8.73 0 0 1 1.36-4.93 5.57 5.57 0 0 1 4.63-2.38c2.76 0 4.38 1.11 5.27 2.76a12.19 12.19 0 0 1 1.15 5.53zm19.21 16.45a8.9 8.9 0 0 1-.38 2.42 9.13 9.13 0 0 1-.55 1.36 2.82 2.82 0 0 0 1.83 1.11v3.91A5 5 0 0 1 33.39 69a7.19 7.19 0 0 1-2.3.38 5.58 5.58 0 0 1-3.57-1.06A5.73 5.73 0 0 1 25.74 66a8.51 8.51 0 0 1-.76-3.4V44.25a8.47 8.47 0 0 1 .76-3.36 5.39 5.39 0 0 1 5.36-3.4 5.71 5.71 0 0 1 3.53 1.06 6 6 0 0 1 1.83 2.34 8.47 8.47 0 0 1 .77 3.36v18.4zm-4.59-18.4a2.83 2.83 0 0 0-.59-2 1.32 1.32 0 0 0-.94-.25 1.42 1.42 0 0 0-1.36 1.15 3.25 3.25 0 0 0-.17 1.15v18.4a2.71 2.71 0 0 0 .64 2 1.22 1.22 0 0 0 .89.34 1.34 1.34 0 0 0 1.36-1.15 3 3 0 0 0 .17-1.15V44.25zm20.23-6.42v24.82a8.51 8.51 0 0 1-.77 3.4 5.85 5.85 0 0 1-1.83 2.3 5.46 5.46 0 0 1-3.53 1.06 5.58 5.58 0 0 1-3.57-1.06A5.73 5.73 0 0 1 41.38 66a8.51 8.51 0 0 1-.76-3.4V37.83h4.58v24.82a2.71 2.71 0 0 0 .64 2 1.22 1.22 0 0 0 .89.34 1.34 1.34 0 0 0 1.36-1.15 3 3 0 0 0 .17-1.15V37.83h4.59zm2.34 31.24l4.72-31.24h5.61l4.72 31.24h-4.47l-.85-6.38H60.5l-.85 6.38h-4.46zM63 48l-.13-.81h-.28l-.13.81-1.32 9.86h3.15zm17.82 21.07l-2.38-13.18h-1.23v13.18h-4.59V37.83h4.59c5.48 0 7.82 3.1 7.82 9 0 3.1-.81 5.91-2.55 7.1l2.93 15.13h-4.59zm-3.61-17.43a3.19 3.19 0 0 0 2.16-.64c.68-.6 1.23-1.74 1.23-4s-.55-3.4-1.23-4a3.14 3.14 0 0 0-2.17-.64v9.27zm11-13.81h10.5v4.72h-5.9v8.2h4.25v5h-4.25v8.59h5.91v4.72H88.21V37.83z"/><path class="cls-2" d="M108.21 86.33H0V0h108.21v86.33zM3 83.37h102.26V3H3v80.37z"/></svg>