<?xml version="1.0" encoding="utf-8"?>
<!-- Generator: Adobe Illustrator 19.2.1, SVG Export Plug-In . SVG Version: 6.00 Build 0)  -->
<svg version="1.1" id="Layer_1" xmlns="http://www.w3.org/2000/svg" xmlns:xlink="http://www.w3.org/1999/xlink" x="0px" y="0px"
	 viewBox="0 0 108.2 86.3" style="enable-background:new 0 0 108.2 86.3;" xml:space="preserve">
<style type="text/css">
	.st0{opacity:0.3;fill:#FDFEFF;}
	.st1{fill:#FFFFFF;}
	.st2{fill:#FDFEFF;}
</style>
<rect x="0.3" class="st0" width="108.2" height="86.3"/>
<title>fountainSquare_logo</title>
<path class="st1" d="M18.2,19.8h-3.8v4.9H17v2.8h-2.6v8.2h-2.8V17h6.6V19.8z"/>
<path class="st1" d="M29.4,31.9c0,0.7-0.2,1.4-0.5,2c-0.2,0.5-0.6,1-1.1,1.4c-0.6,0.5-1.4,0.7-2.1,0.6c-0.8,0-1.5-0.2-2.1-0.6
	c-0.5-0.4-0.8-0.8-1.1-1.4c-0.3-0.6-0.4-1.3-0.5-2v-11c0-0.7,0.2-1.4,0.5-2c0.5-1.3,1.8-2.1,3.2-2c0.8,0,1.5,0.2,2.1,0.6
	c0.5,0.4,0.9,0.8,1.1,1.4c0.3,0.6,0.4,1.3,0.5,2V31.9L29.4,31.9z M26.6,20.9c0-0.4-0.1-0.8-0.4-1.2c-0.2-0.1-0.4-0.2-0.6-0.2
	c-0.4,0-0.7,0.3-0.8,0.7c-0.1,0.2-0.1,0.5-0.1,0.7v11c0,0.4,0.1,0.8,0.4,1.2c0.1,0.1,0.3,0.2,0.5,0.2c0.4,0,0.8-0.3,0.8-0.7
	c0.1-0.2,0.1-0.5,0.1-0.7C26.6,31.9,26.6,20.9,26.6,20.9z"/>
<path class="st1" d="M41.5,17v14.9c0,0.7-0.2,1.4-0.5,2c-0.2,0.5-0.6,1-1.1,1.4c-0.6,0.5-1.4,0.7-2.1,0.6c-0.8,0-1.5-0.2-2.1-0.6
	c-0.5-0.4-0.8-0.8-1.1-1.4c-0.3-0.6-0.4-1.3-0.5-2V17h2.8v14.9c0,0.4,0.1,0.8,0.4,1.2c0.1,0.1,0.3,0.2,0.5,0.2
	c0.4,0,0.8-0.3,0.8-0.7c0.1-0.2,0.1-0.5,0.1-0.7V17H41.5L41.5,17z"/>
<path class="st1" d="M49.3,26l-0.2-0.9h-0.2v10.6h-2.5V17h2.5l2.7,9.8l0.2,0.9h0.2V17h2.5v18.7H52L49.3,26z"/>
<path class="st1" d="M58.4,19.8V17h8v2.8h-2.6v15.9H61V19.8H58.4L58.4,19.8z"/>
<path class="st1" d="M69,35.7L71.8,17h3.4l2.8,18.7h-2.7l-0.5-3.8h-2.7l-0.5,3.8H69z M73.7,23.1l-0.1-0.5h-0.2l-0.1,0.5L72.6,29h1.9
	L73.7,23.1z"/>
<path class="st1" d="M82.2,17H85v18.7h-2.8V17z"/>
<path class="st1" d="M92.8,26l-0.2-0.9h-0.1v10.6h-2.5V17h2.4l2.7,9.8l0.2,0.9h0.2V17H98v18.7h-2.5L92.8,26z"/>
<path class="st1" d="M18,46.2c0-1-0.1-2.1-0.3-3.1c-0.1-0.8-0.7-1.3-1.5-1.4c-1.2,0-1.6,1.3-1.6,3.1c0.1,1.2,0.5,2.4,1.1,3.4
	c0.7,1.2,1.6,2.4,2.5,3.7c1.1,1.5,2,3.1,2.9,4.8c0.8,1.5,1.3,3.2,1.4,4.9c0.1,1.9-0.3,3.8-1.3,5.4c-1.1,1.6-3.1,2.5-5.1,2.4
	c-2.9,0-4.6-1.1-5.5-2.8c-0.9-2-1.3-4.1-1.1-6.3l4.5-0.4c-0.1,1.2,0.1,2.4,0.4,3.6c0.3,1,0.8,1.7,1.8,1.7c1.4,0,1.9-1.5,1.9-3.4
	c-0.1-1.2-0.5-2.4-1.2-3.4c-0.4-0.6-0.8-1.2-1.2-1.9c-0.9-1.3-1.9-2.7-2.9-4.3c-1-1.5-1.7-3.1-2.2-4.8c-0.3-0.8-0.4-1.7-0.4-2.5
	c0-1.7,0.4-3.5,1.4-4.9c1.1-1.5,2.8-2.4,4.6-2.4c2.8,0,4.4,1.1,5.3,2.8c0.8,1.7,1.2,3.6,1.1,5.5L18,46.2z"/>
<path class="st1" d="M37.2,62.7c0,0.8-0.1,1.6-0.4,2.4c-0.1,0.5-0.3,0.9-0.5,1.4c0.4,0.6,1.1,1,1.8,1.1v3.9
	c-1.9,0.2-3.7-0.8-4.7-2.5c-0.7,0.3-1.5,0.4-2.3,0.4c-1.3,0.1-2.5-0.3-3.6-1.1c-0.8-0.6-1.4-1.4-1.8-2.3c-0.5-1.1-0.7-2.2-0.8-3.4
	V44.2c0-1.2,0.3-2.3,0.8-3.4c0.9-2.2,3-3.6,5.4-3.4c1.3,0,2.5,0.3,3.5,1.1c0.8,0.6,1.4,1.4,1.8,2.3c0.5,1.1,0.7,2.2,0.8,3.4
	L37.2,62.7L37.2,62.7z M32.6,44.2c0.1-0.7-0.1-1.4-0.6-2c-0.3-0.2-0.6-0.3-0.9-0.2c-0.7,0-1.2,0.5-1.4,1.2c-0.1,0.4-0.2,0.8-0.2,1.2
	v18.4c-0.1,0.7,0.2,1.4,0.6,2c0.2,0.2,0.6,0.4,0.9,0.3c0.7,0,1.3-0.5,1.4-1.2c0.1-0.4,0.2-0.8,0.2-1.2
	C32.6,62.7,32.6,44.2,32.6,44.2z"/>
<path class="st1" d="M52.8,37.8v24.8c0,1.2-0.3,2.3-0.8,3.4c-0.4,0.9-1,1.7-1.8,2.3c-1,0.8-2.3,1.1-3.5,1.1
	c-1.3,0.1-2.5-0.3-3.6-1.1c-0.8-0.6-1.4-1.4-1.8-2.4c-0.5-1.1-0.7-2.2-0.8-3.4V37.8h4.6v24.8c-0.1,0.7,0.2,1.4,0.6,2
	c0.2,0.2,0.6,0.4,0.9,0.3c0.7,0,1.3-0.5,1.4-1.2c0.1-0.4,0.2-0.8,0.2-1.2V37.8H52.8z"/>
<path class="st1" d="M55.2,69.1l4.7-31.2h5.6l4.7,31.2h-4.5l-0.8-6.4h-4.4l-0.8,6.4H55.2z M63,48l-0.1-0.8h-0.3L62.5,48l-1.3,9.9
	h3.2L63,48z"/>
<path class="st1" d="M80.8,69.1l-2.4-13.2h-1.2v13.2h-4.6V37.8h4.6c5.5,0,7.8,3.1,7.8,9c0,3.1-0.8,5.9-2.6,7.1l2.9,15.1L80.8,69.1
	L80.8,69.1z M77.2,51.6c0.8,0.1,1.5-0.2,2.2-0.6c0.7-0.6,1.2-1.7,1.2-4s-0.6-3.4-1.2-4c-0.6-0.5-1.4-0.7-2.2-0.6L77.2,51.6
	L77.2,51.6z"/>
<path class="st1" d="M88.2,37.8h10.5v4.7h-5.9v8.2h4.2v5h-4.2v8.6h5.9v4.7H88.2V37.8z"/>
<path class="st2" d="M108.2,86.3H0V0h108.2V86.3z M3,83.4h102.3V3H3V83.4z"/>
</svg>
