<svg id="Layer_1" data-name="Layer 1" xmlns="http://www.w3.org/2000/svg" viewBox="0 0 108.21 86.33"><defs><style>.cls-1{fill:#fff;}.cls-2{fill:#fdfeff;}</style></defs><title>fountainSquare_logo</title><path class="cls-1" d="M18.2,19.83H14.4v4.92H17v2.83H14.4v8.16H11.65V17H18.2v2.83Z"/><path class="cls-1" d="M29.4,31.89a5.11,5.11,0,0,1-.46,2,3.51,3.51,0,0,1-1.1,1.38,3.27,3.27,0,0,1-2.12.64,3.35,3.35,0,0,1-2.14-.64,3.44,3.44,0,0,1-1.07-1.38,5.11,5.11,0,0,1-.46-2v-11a5.08,5.08,0,0,1,.46-2,3.23,3.23,0,0,1,3.21-2,3.43,3.43,0,0,1,2.12.64,3.58,3.58,0,0,1,1.1,1.4,5.08,5.08,0,0,1,.46,2v11Zm-2.75-11a1.7,1.7,0,0,0-.36-1.17,0.79,0.79,0,0,0-.56-0.2,0.85,0.85,0,0,0-.82.69,2,2,0,0,0-.1.69v11a1.62,1.62,0,0,0,.38,1.17,0.73,0.73,0,0,0,.54.2,0.81,0.81,0,0,0,.82-0.69,1.78,1.78,0,0,0,.1-0.69v-11Z"/><path class="cls-1" d="M41.48,17V31.89a5.11,5.11,0,0,1-.46,2,3.51,3.51,0,0,1-1.1,1.38,3.27,3.27,0,0,1-2.12.64,3.35,3.35,0,0,1-2.14-.64,3.44,3.44,0,0,1-1.07-1.38,5.11,5.11,0,0,1-.46-2V17h2.75V31.89a1.62,1.62,0,0,0,.38,1.17,0.73,0.73,0,0,0,.54.2,0.81,0.81,0,0,0,.82-0.69,1.78,1.78,0,0,0,.1-0.69V17h2.75Z"/><path class="cls-1" d="M49.31,26l-0.23-.87H48.93V35.74H46.4V17h2.45l2.68,9.77,0.23,0.87h0.15V17h2.52V35.74H52Z"/><path class="cls-1" d="M58.42,19.83V17h8v2.83h-2.6V35.74H61V19.83h-2.6Z"/><path class="cls-1" d="M69,35.74L71.85,17h3.37l2.83,18.74H75.37l-0.51-3.83H72.21L71.7,35.74H69ZM73.69,23.1l-0.08-.48H73.46l-0.08.48L72.59,29h1.89Z"/><path class="cls-1" d="M82.23,17H85V35.74H82.23V17Z"/><path class="cls-1" d="M92.84,26l-0.23-.87H92.46V35.74H89.94V17h2.45l2.68,9.77,0.23,0.87h0.15V17H98V35.74H95.52Z"/><path class="cls-1" d="M18,46.2a10.25,10.25,0,0,0-.34-3.06,1.74,1.74,0,0,0-1.49-1.44c-1.19,0-1.57,1.27-1.57,3.1a7,7,0,0,0,1.15,3.36c0.68,1.19,1.57,2.42,2.47,3.74a48,48,0,0,1,2.93,4.76,10.71,10.71,0,0,1,1.36,4.89A9.82,9.82,0,0,1,21.23,67a5.63,5.63,0,0,1-5.06,2.38c-2.93,0-4.59-1.11-5.53-2.8A13.33,13.33,0,0,1,9.5,60.31L14,59.89a11.79,11.79,0,0,0,.38,3.61c0.3,1,.81,1.7,1.79,1.7,1.36,0,1.87-1.45,1.87-3.44a7.77,7.77,0,0,0-1.19-3.44c-0.38-.59-0.76-1.23-1.19-1.87-0.89-1.28-1.87-2.72-2.89-4.29a17.82,17.82,0,0,1-2.25-4.85,8.34,8.34,0,0,1-.38-2.51,8.73,8.73,0,0,1,1.36-4.93,5.57,5.57,0,0,1,4.63-2.38c2.76,0,4.38,1.11,5.27,2.76a12.19,12.19,0,0,1,1.15,5.53Z"/><path class="cls-1" d="M37.21,62.65a8.9,8.9,0,0,1-.38,2.42,9.13,9.13,0,0,1-.55,1.36,2.82,2.82,0,0,0,1.83,1.11v3.91A5,5,0,0,1,33.39,69a7.19,7.19,0,0,1-2.3.38,5.58,5.58,0,0,1-3.57-1.06A5.73,5.73,0,0,1,25.74,66a8.51,8.51,0,0,1-.76-3.4V44.25a8.47,8.47,0,0,1,.76-3.36,5.39,5.39,0,0,1,5.36-3.4,5.71,5.71,0,0,1,3.53,1.06,6,6,0,0,1,1.83,2.34,8.47,8.47,0,0,1,.77,3.36v18.4Zm-4.59-18.4a2.83,2.83,0,0,0-.59-2A1.32,1.32,0,0,0,31.09,42a1.42,1.42,0,0,0-1.36,1.15,3.25,3.25,0,0,0-.17,1.15v18.4a2.71,2.71,0,0,0,.64,2,1.22,1.22,0,0,0,.89.34,1.34,1.34,0,0,0,1.36-1.15,3,3,0,0,0,.17-1.15V44.25Z"/><path class="cls-1" d="M52.85,37.83V62.65a8.51,8.51,0,0,1-.77,3.4,5.85,5.85,0,0,1-1.83,2.3,5.46,5.46,0,0,1-3.53,1.06,5.58,5.58,0,0,1-3.57-1.06A5.73,5.73,0,0,1,41.38,66a8.51,8.51,0,0,1-.76-3.4V37.83H45.2V62.65a2.71,2.71,0,0,0,.64,2,1.22,1.22,0,0,0,.89.34,1.34,1.34,0,0,0,1.36-1.15,3,3,0,0,0,.17-1.15V37.83h4.59Z"/><path class="cls-1" d="M55.19,69.07l4.72-31.24h5.61l4.72,31.24H65.77l-0.85-6.38H60.5l-0.85,6.38H55.19ZM63,48l-0.13-.81H62.59L62.46,48l-1.32,9.86h3.15Z"/><path class="cls-1" d="M80.82,69.07L78.44,55.89H77.21V69.07H72.62V37.83h4.59c5.48,0,7.82,3.1,7.82,9,0,3.1-.81,5.91-2.55,7.1l2.93,15.13H80.82ZM77.21,51.64A3.19,3.19,0,0,0,79.37,51c0.68-.6,1.23-1.74,1.23-4s-0.55-3.4-1.23-4a3.14,3.14,0,0,0-2.17-.64v9.27Z"/><path class="cls-1" d="M88.21,37.83h10.5v4.72H92.81v8.2h4.25v5H92.81v8.59h5.91v4.72H88.21V37.83Z"/><path class="cls-2" d="M108.21,86.33H0V0H108.21V86.33ZM3,83.37H105.26V3H3V83.37Z"/></svg>